# xmcd CD database file
#
# Track frame offsets:
#	150
#	27837
#	53132
#	82717
#	102602
#	126220
#	150187
#	182797
#	204200
#	225982
#	247052
#	283872
#
# Disc length: 3938 seconds
#
# Revision: 0
# Processed by: cddbd v1.4PL0 Copyright (c) Steve Scherf et al.
# Submitted via: CDex 1.50beta10a
#
DISCID=930f600c
DTITLE=Humberto Ramirez - Portrait of a Stranger
DYEAR=1900
DGENRE=Jazz
TTITLE0=El Principe
TTITLE1=Sanjuanero
TTITLE2=Cuando estoy contigo
TTITLE3=Catalina
TTITLE4=Sonando con Puerto Rico
TTITLE5=Un tipo con suerte
TTITLE6=The ball players
TTITLE7=My funny Valentine
TTITLE8=To the King
TTITLE9=Portrait of a stranger
TTITLE10=Cristina
TTITLE11=Atmospheres
EXTD=
EXTT0=
EXTT1=
EXTT2=
EXTT3=
EXTT4=
EXTT5=
EXTT6=
EXTT7=
EXTT8=
EXTT9=
EXTT10=
EXTT11=
PLAYORDER=
